{"asset":{"version":"2.0","generator":"THREE.GLTFExporter"},"scenes":[{"nodes":[0],"name":"AuxScene"}],"scene":0,"nodes":[{"mesh":0}],"bufferViews":[{"buffer":0,"byteOffset":0,"byteLength":5004,"target":34962,"byteStride":12},{"buffer":0,"byteOffset":5004,"byteLength":5004,"target":34962,"byteStride":12}],"buffers":[{"byteLength":10008,"uri":"data:application/octet-stream;base64,"}],"accessors":[{"bufferView":0,"componentType":5126,"count":417,"max":[47,2.5970919132232666,47],"min":[-47,-89.30290985107422,-47],"type":"VEC3"},{"bufferView":1,"componentType":5126,"count":417,"max":[0.4132518768310547,1,0.4132518768310547],"min":[-0.41325169801712036,0.8264992833137512,-0.41325169801712036],"type":"VEC3"}],"materials":[{"pbrMetallicRoughness":{"baseColorFactor":[0.5019607843137255,0.5019607843137255,0.5019607843137255,1],"metallicFactor":0,"roughnessFactor":1}}],"meshes":[{"primitives":[{"mode":4,"attributes":{"POSITION":0,"NORMAL":1},"material":0}]}]}