# WaveFront *.obj file (generated by Autodesk ATF)

mtllib 5019839f-29bc-4fd4-8c4e-1a2f190d2eec.mtl

g Body1

v 5000.000000 0.000000 0.000000
v 0.000000 0.000000 0.000000
v 0.000000 2000.000000 0.000000
v 5000.000000 2000.000000 0.000000
v 5000.000000 0.000000 -3000.000000
v 5000.000000 2000.000000 -3000.000000
v 3000.000000 0.000000 -3000.000000
v 3000.000000 2000.000000 -3000.000000
v 3000.000000 0.000000 -1500.000000
v 3000.000000 2000.000000 -1500.000000
v 0.000000 0.000000 -1500.000000
v 0.000000 2000.000000 -1500.000000
v 2900.000000 0.000000 -1600.000000
v -100.000000 0.000000 -1600.000000
v -100.000000 2000.000000 -1600.000000
v 2900.000000 2000.000000 -1600.000000
v 2900.000000 0.000000 -3100.000000
v 2900.000000 2000.000000 -3100.000000
v 5100.000000 0.000000 -3100.000000
v 5100.000000 2000.000000 -3100.000000
v 5100.000000 0.000000 100.000000
v 5100.000000 2000.000000 100.000000
v -100.000000 0.000000 100.000000
v -100.000000 2000.000000 100.000000
vt 0.000000 0.000000 0.000000
vt 500.000000 0.000000 0.000000
vt 0.000000 200.000000 0.000000
vt 500.000000 200.000000 0.000000
vt 0.000000 0.000000 0.000000
vt 300.000000 0.000000 0.000000
vt 0.000000 200.000000 0.000000
vt 300.000000 200.000000 0.000000
vt 0.000000 0.000000 0.000000
vt 200.000000 0.000000 0.000000
vt 0.000000 200.000000 0.000000
vt 200.000000 200.000000 0.000000
vt 0.000000 0.000000 0.000000
vt 150.000000 0.000000 0.000000
vt 0.000000 200.000000 0.000000
vt 150.000000 200.000000 0.000000
vt 0.000000 0.000000 0.000000
vt 300.000000 0.000000 0.000000
vt 0.000000 200.000000 0.000000
vt 300.000000 200.000000 0.000000
vt 0.000000 0.000000 0.000000
vt 150.000000 0.000000 0.000000
vt 0.000000 200.000000 0.000000
vt 150.000000 200.000000 0.000000
vt 0.000000 0.000000 0.000000
vt 300.000000 0.000000 0.000000
vt 0.000000 200.000000 0.000000
vt 300.000000 200.000000 0.000000
vt 0.000000 0.000000 0.000000
vt 150.000000 0.000000 0.000000
vt 0.000000 200.000000 0.000000
vt 150.000000 200.000000 0.000000
vt 0.000000 0.000000 0.000000
vt 220.000000 0.000000 0.000000
vt 0.000000 200.000000 0.000000
vt 220.000000 200.000000 0.000000
vt 0.000000 0.000000 0.000000
vt 320.000000 0.000000 0.000000
vt 0.000000 200.000000 0.000000
vt 320.000000 200.000000 0.000000
vt 0.000000 0.000000 0.000000
vt 520.000000 0.000000 0.000000
vt 0.000000 200.000000 0.000000
vt 520.000000 200.000000 0.000000
vt 0.000000 0.000000 0.000000
vt 170.000000 0.000000 0.000000
vt 0.000000 200.000000 0.000000
vt 170.000000 200.000000 0.000000
vt 150.000000 250.000000 0.000000
vt 150.000000 -250.000000 0.000000
vt 160.000000 -260.000000 0.000000
vt 0.000000 -250.000000 0.000000
vt -10.000000 -260.000000 0.000000
vt -10.000000 40.000000 0.000000
vt 0.000000 50.000000 0.000000
vt -150.000000 50.000000 0.000000
vt -160.000000 40.000000 0.000000
vt -150.000000 250.000000 0.000000
vt -160.000000 260.000000 0.000000
vt 160.000000 260.000000 0.000000
vt 250.000000 -150.000000 0.000000
vt 260.000000 -160.000000 0.000000
vt 250.000000 0.000000 0.000000
vt 260.000000 10.000000 0.000000
vt -40.000000 10.000000 0.000000
vt -250.000000 -150.000000 0.000000
vt -260.000000 -160.000000 0.000000
vt -250.000000 150.000000 0.000000
vt -260.000000 160.000000 0.000000
vt -50.000000 150.000000 0.000000
vt -40.000000 160.000000 0.000000
vt -50.000000 0.000000 0.000000
vn -0.000000 0.000000 -0.100000
vn -0.000000 0.000000 -0.100000
vn -0.000000 0.000000 -0.100000
vn -0.000000 0.000000 -0.100000
vn -0.100000 0.000000 0.000000
vn -0.100000 0.000000 0.000000
vn -0.100000 0.000000 0.000000
vn -0.100000 0.000000 0.000000
vn 0.000000 0.000000 0.100000
vn 0.000000 0.000000 0.100000
vn 0.000000 0.000000 0.100000
vn 0.000000 0.000000 0.100000
vn 0.100000 -0.000000 0.000000
vn 0.100000 -0.000000 0.000000
vn 0.100000 -0.000000 0.000000
vn 0.100000 -0.000000 0.000000
vn 0.000000 0.000000 0.100000
vn 0.000000 0.000000 0.100000
vn 0.000000 0.000000 0.100000
vn 0.000000 0.000000 0.100000
vn 0.100000 -0.000000 0.000000
vn 0.100000 -0.000000 0.000000
vn 0.100000 -0.000000 0.000000
vn 0.100000 -0.000000 0.000000
vn 0.000000 0.000000 -0.100000
vn 0.000000 0.000000 -0.100000
vn 0.000000 0.000000 -0.100000
vn 0.000000 0.000000 -0.100000
vn -0.100000 0.000000 0.000000
vn -0.100000 0.000000 0.000000
vn -0.100000 0.000000 0.000000
vn -0.100000 0.000000 0.000000
vn 0.000000 0.000000 -0.100000
vn 0.000000 0.000000 -0.100000
vn 0.000000 0.000000 -0.100000
vn 0.000000 0.000000 -0.100000
vn 0.100000 -0.000000 0.000000
vn 0.100000 -0.000000 0.000000
vn 0.100000 -0.000000 0.000000
vn 0.100000 -0.000000 0.000000
vn 0.000000 0.000000 0.100000
vn 0.000000 0.000000 0.100000
vn 0.000000 0.000000 0.100000
vn 0.000000 0.000000 0.100000
vn -0.100000 0.000000 0.000000
vn -0.100000 0.000000 0.000000
vn -0.100000 0.000000 0.000000
vn -0.100000 0.000000 0.000000
vn 0.000000 0.100000 0.000000
vn 0.000000 0.100000 0.000000
vn 0.000000 0.100000 0.000000
vn 0.000000 0.100000 0.000000
vn 0.000000 0.100000 0.000000
vn 0.000000 0.100000 0.000000
vn 0.000000 0.100000 0.000000
vn 0.000000 0.100000 0.000000
vn 0.000000 0.100000 0.000000
vn 0.000000 0.100000 0.000000
vn 0.000000 0.100000 0.000000
vn 0.000000 0.100000 0.000000
vn 0.000000 -0.100000 0.000000
vn 0.000000 -0.100000 0.000000
vn 0.000000 -0.100000 0.000000
vn 0.000000 -0.100000 0.000000
vn 0.000000 -0.100000 0.000000
vn 0.000000 -0.100000 0.000000
vn 0.000000 -0.100000 0.000000
vn 0.000000 -0.100000 0.000000
vn 0.000000 -0.100000 0.000000
vn 0.000000 -0.100000 0.000000
vn 0.000000 -0.100000 0.000000
vn 0.000000 -0.100000 0.000000
usemtl Steel_-_Satin
f 1/1/1 2/2/2 4/3/3
f 4/3/3 2/2/2 3/4/4
f 5/5/5 1/6/6 6/7/7
f 6/7/7 1/6/6 4/8/8
f 7/9/9 5/10/10 8/11/11
f 8/11/11 5/10/10 6/12/12
f 9/13/13 7/14/14 10/15/15
f 10/15/15 7/14/14 8/16/16
f 11/17/17 9/18/18 12/19/19
f 12/19/19 9/18/18 10/20/20
f 2/21/21 11/22/22 3/23/23
f 3/23/23 11/22/22 12/24/24
f 13/25/25 14/26/26 16/27/27
f 16/27/27 14/26/26 15/28/28
f 17/29/29 13/30/30 18/31/31
f 18/31/31 13/30/30 16/32/32
f 19/33/33 17/34/34 20/35/35
f 20/35/35 17/34/34 18/36/36
f 21/37/37 19/38/38 22/39/39
f 22/39/39 19/38/38 20/40/40
f 23/41/41 21/42/42 24/43/43
f 24/43/43 21/42/42 22/44/44
f 14/45/45 23/46/46 15/47/47
f 15/47/47 23/46/46 24/48/48
f 4/49/49 3/50/50 24/51/51
f 24/51/51 3/50/50 12/52/52
f 24/51/51 12/52/52 15/53/53
f 15/53/53 12/52/52 16/54/54
f 16/54/54 12/52/52 10/55/55
f 16/54/54 10/55/55 8/56/56
f 16/54/54 8/56/56 18/57/57
f 18/57/57 8/56/56 6/58/58
f 18/57/57 6/58/58 20/59/59
f 20/59/59 6/58/58 4/49/49
f 20/59/59 4/49/49 22/60/60
f 22/60/60 4/49/49 24/51/51
f 2/61/61 23/62/62 11/63/63
f 11/63/63 23/62/62 14/64/64
f 11/63/63 14/64/64 13/65/65
f 2/61/61 1/66/66 23/62/62
f 23/62/62 1/66/66 21/67/67
f 21/67/67 1/66/66 5/68/68
f 21/67/67 5/68/68 19/69/69
f 19/69/69 5/68/68 7/70/70
f 19/69/69 7/70/70 17/71/71
f 17/71/71 7/70/70 13/65/65
f 13/65/65 7/70/70 9/72/72
f 13/65/65 9/72/72 11/63/63
# 24 vertices
# 72 texture params
# 72 normals
# 48 facets

# 1 groups
